<svg width="32" height="32" viewBox="0 0 32 32" fill="none" xmlns="http://www.w3.org/2000/svg">
<path d="M15.9999 0C12.2007 0.000161528 8.52552 1.38637 5.63195 3.9106C2.73837 6.43482 0.81524 9.93234 0.206655 13.7773C-0.401929 17.6223 0.34375 21.5639 2.31027 24.8968C4.27678 28.2297 7.33581 30.7364 10.94 31.9684C11.74 32.1119 12.04 31.6198 12.04 31.1892C12.04 30.7996 12.02 29.5077 12.02 28.1338C7.99999 28.8925 6.95999 27.1291 6.64 26.2063C6.28492 25.3089 5.72204 24.5136 5.00001 23.8891C4.44001 23.5816 3.64002 22.8228 4.97999 22.8024C5.49165 22.8593 5.98238 23.0418 6.41061 23.3345C6.83883 23.6272 7.19194 24.0214 7.43999 24.4838C7.65882 24.8869 7.95308 25.2417 8.30589 25.5279C8.6587 25.8142 9.06314 26.0263 9.49603 26.152C9.92892 26.2777 10.3817 26.3146 10.8286 26.2606C11.2754 26.2066 11.7074 26.0627 12.0999 25.8372C12.1692 25.0032 12.5317 24.2235 13.12 23.6431C9.55998 23.233 5.84 21.818 5.84 15.5434C5.81752 13.913 6.4043 12.3356 7.47999 11.1346C6.99085 9.71765 7.04808 8.1626 7.63999 6.78744C7.63999 6.78744 8.97993 6.3568 12.04 8.4689C14.658 7.73065 17.4219 7.73065 20.0399 8.4689C23.0998 6.33631 24.4399 6.78744 24.4399 6.78744C25.0319 8.16259 25.0891 9.71766 24.5999 11.1346C25.6788 12.3335 26.2661 13.9123 26.2399 15.5434C26.2399 21.8386 22.4999 23.233 18.9399 23.6431C19.3217 24.0399 19.6158 24.5163 19.8022 25.04C19.9885 25.5636 20.0628 26.1223 20.0199 26.678C20.0199 28.8721 19.9999 30.6355 19.9999 31.1892C19.9999 31.6199 20.2999 32.1325 21.0999 31.9684C24.6977 30.7264 27.748 28.2138 29.7061 24.8792C31.6642 21.5447 32.4028 17.6051 31.79 13.7638C31.1772 9.92254 29.2529 6.42956 26.3606 3.9084C23.4683 1.38725 19.7962 0.00202581 15.9999 0Z" fill="black"/>
</svg>
