<svg width="32" height="30" viewBox="0 0 32 30" fill="none" xmlns="http://www.w3.org/2000/svg">
<path d="M31.6421 24.1978C31.8092 23.947 31.9212 23.6638 31.9709 23.3667C32.0204 23.0694 32.0066 22.7651 31.9302 22.4736C31.8195 22.053 31.5908 21.7032 31.2805 21.4519C31.43 21.2062 31.5281 20.9327 31.5688 20.6479C31.6583 20.0287 31.4527 19.4105 30.9902 18.9063C30.6304 18.514 30.1212 18.298 29.5577 18.298C29.4921 18.298 29.4254 18.3015 29.3574 18.3082C29.7846 16.943 30.0012 15.5208 29.9997 14.0904C29.9997 6.30877 23.6912 0 15.9094 0C8.1274 0 1.81829 6.3081 1.81829 14.0904C1.81689 15.5171 2.03232 16.9358 2.45722 18.2979H2.44219C1.87864 18.2979 1.36963 18.5136 1.00966 18.9059C0.547313 19.4096 0.34155 20.0285 0.431084 20.6476C0.471883 20.9324 0.570004 21.206 0.719529 21.4518C0.409076 21.7028 0.180338 22.0527 0.0696284 22.4733C-0.00670103 22.7649 -0.0204563 23.0692 0.0292629 23.3665C0.078982 23.6636 0.191025 23.947 0.358056 24.1978C0.328378 24.2442 0.301034 24.292 0.275191 24.3412C-0.0032499 24.8699 -0.0212399 25.4673 0.224688 26.0237C0.597499 26.8668 1.52351 27.5311 3.32203 28.2442C4.4403 28.6877 5.46454 28.9713 5.47354 28.9738C6.95278 29.3575 8.29063 29.5524 9.44874 29.5524C11.3505 29.5524 12.7694 29.0322 13.6755 28.0044C15.2088 28.2477 16.7714 28.2387 18.3018 27.9781C19.2068 29.0232 20.6339 29.5524 22.5516 29.5524C23.7097 29.5524 25.0476 29.3575 26.5267 28.9738C26.5358 28.9713 27.5596 28.6877 28.6783 28.2442C30.4768 27.5311 31.403 26.8668 31.7757 26.0237C32.0214 25.4673 32.0036 24.8699 31.725 24.3412C31.6997 24.2917 31.6716 24.2437 31.6421 24.1978ZM13.0271 26.3955C12.9491 26.5319 12.8656 26.6651 12.7767 26.7946C12.5424 27.1376 12.2343 27.3997 11.8767 27.5945C11.1931 27.9673 10.3277 28.0975 9.44874 28.0975C8.06004 28.0975 6.63649 27.7725 5.83869 27.5656C5.79934 27.5554 0.9478 26.1851 1.56204 25.0186C1.66541 24.8224 1.83546 24.744 2.04971 24.744C2.91454 24.744 4.48931 26.0319 5.16608 26.0319C5.3173 26.0319 5.42401 25.9675 5.46753 25.8104C5.75597 24.776 1.08367 24.3412 1.47715 22.8433C1.54651 22.5782 1.73494 22.4705 1.99971 22.4705C3.14315 22.4703 5.70947 24.4813 6.24618 24.4813C6.28736 24.4813 6.31685 24.4691 6.33286 24.4437C6.33519 24.4399 6.33754 24.4362 6.33971 24.4322C6.59164 24.0162 6.44707 23.7138 4.72124 22.6567L4.55551 22.5558C2.65628 21.4064 1.32326 20.7146 2.08139 19.8893C2.16859 19.7941 2.2923 19.7519 2.44253 19.7519C2.62059 19.7519 2.83618 19.8115 3.0736 19.9115C4.07666 20.3345 5.46688 21.4881 6.0476 21.9911C6.13895 22.0705 6.22972 22.1507 6.31985 22.2314C6.31985 22.2314 7.05515 22.996 7.49966 22.996C7.60203 22.996 7.68888 22.9557 7.74774 22.856C8.06304 22.3244 4.81944 19.8665 4.63654 18.8523C4.51249 18.1652 4.72357 17.817 5.11372 17.817C5.29929 17.817 5.52571 17.896 5.77564 18.0546C6.55094 18.5466 8.04785 21.119 8.5959 22.1197C8.77963 22.455 9.09326 22.5967 9.37587 22.5967C9.93658 22.5967 10.3749 22.0393 9.42722 21.331C8.00284 20.2653 8.50271 18.5233 9.18247 18.4161C9.21149 18.4114 9.24081 18.4091 9.26999 18.4091C9.88823 18.4091 10.1608 19.4743 10.1608 19.4743C10.1608 19.4743 10.9601 21.4814 12.3332 22.8535C13.579 24.0988 13.7531 25.1207 13.0271 26.3955ZM17.467 26.6306L17.3958 26.6391L17.2744 26.6529C17.2106 26.6596 17.1465 26.6659 17.0824 26.6718L17.0198 26.6774L16.9626 26.6823L16.8816 26.6888L16.7921 26.6953L16.7027 26.7011L16.6829 26.7024C16.6595 26.7038 16.6362 26.7053 16.6125 26.7064L16.5827 26.7081C16.555 26.7096 16.5273 26.7109 16.4993 26.7121L16.4024 26.7163L16.3146 26.7193L16.2559 26.721H16.226C16.2077 26.721 16.1895 26.7219 16.1712 26.7221H16.1422C16.1238 26.7221 16.1056 26.7221 16.0873 26.723L16.0126 26.724H15.9084C15.8265 26.724 15.7448 26.7231 15.6635 26.7214L15.5974 26.7199C15.5786 26.7199 15.5598 26.7191 15.5413 26.7185L15.4712 26.7164L15.3844 26.7131L15.306 26.7096L15.2858 26.7088L15.2113 26.7049C15.1905 26.7038 15.1699 26.7028 15.1493 26.7013L15.1011 26.6984C15.0406 26.6946 14.98 26.6904 14.9195 26.6858L14.8562 26.6806C14.8295 26.6786 14.8028 26.6761 14.7763 26.6738C14.7451 26.6711 14.7139 26.6681 14.6828 26.6651C14.6306 26.6603 14.5784 26.6549 14.5262 26.6493H14.5237C15.2857 24.9494 14.9003 23.3618 13.3606 21.8234C12.3507 20.8148 11.6789 19.3256 11.5395 18.9986C11.2574 18.0308 10.5108 16.9549 9.27084 16.9549C9.16597 16.9549 9.06126 16.9632 8.95772 16.9795C8.41451 17.0651 7.93966 17.3777 7.60086 17.8482C7.23472 17.3929 6.87892 17.0309 6.55713 16.8265C6.07194 16.5188 5.58774 16.3628 5.11606 16.3628C4.52733 16.3628 4.00113 16.6046 3.63432 17.0431L3.62498 17.0542C3.61798 17.0254 3.61131 16.9965 3.60447 16.9675L3.60364 16.9637C3.53383 16.6652 3.47522 16.3643 3.42791 16.0613C3.42791 16.0593 3.42791 16.0573 3.42691 16.0553C3.42324 16.0325 3.4199 16.0095 3.4164 15.9866C3.40615 15.919 3.39653 15.8511 3.38756 15.7832C3.38356 15.7524 3.37922 15.7215 3.37539 15.6907L3.36405 15.5982C3.36038 15.5673 3.35738 15.5393 3.35404 15.51L3.35306 15.5026C3.33974 15.3826 3.32807 15.2625 3.31803 15.1422L3.31436 15.096L3.30853 15.0173C3.30686 14.9958 3.30519 14.9741 3.30402 14.9524C3.30402 14.9472 3.30319 14.9422 3.30302 14.9374C3.29879 14.877 3.29517 14.8165 3.29219 14.756C3.29052 14.7245 3.28885 14.6931 3.28752 14.6615L3.28418 14.5788L3.28335 14.5538L3.28068 14.4776L3.27902 14.4127C3.27902 14.3869 3.27768 14.361 3.27735 14.3352C3.27685 14.3093 3.27618 14.281 3.27601 14.2536C3.27568 14.2263 3.27601 14.1993 3.27518 14.1721C3.27451 14.1448 3.27518 14.1176 3.27518 14.0904C3.27518 7.11224 8.93253 1.45489 15.9114 1.45489C22.8901 1.45489 28.5473 7.11208 28.5473 14.0904V14.2536C28.5473 14.2808 28.5464 14.3082 28.5459 14.3352C28.5459 14.3577 28.5449 14.3799 28.5443 14.4027C28.5443 14.4227 28.5434 14.4429 28.5428 14.4622C28.5428 14.4877 28.5413 14.5132 28.5404 14.5388V14.5408L28.5369 14.6293C28.5358 14.6551 28.5348 14.6811 28.5334 14.707L28.5326 14.7253L28.5281 14.808C28.5183 14.9853 28.5048 15.1622 28.4879 15.3389V15.3411C28.4851 15.3701 28.4822 15.3991 28.4791 15.4281L28.4716 15.4966L28.4567 15.6307L28.4482 15.6985L28.4377 15.7784C28.4339 15.8074 28.4301 15.8366 28.4257 15.8654C28.4214 15.8979 28.4166 15.9303 28.4117 15.9626L28.4002 16.0392L28.3865 16.1259C28.3819 16.1547 28.3769 16.1834 28.3715 16.2121C28.366 16.2409 28.3617 16.2696 28.3567 16.2983C28.3467 16.3556 28.3362 16.413 28.3252 16.4702C28.3083 16.5557 28.2912 16.6411 28.2735 16.7264L28.2552 16.811C28.2492 16.8391 28.2427 16.8675 28.2363 16.8957C27.8807 16.55 27.4097 16.3618 26.8903 16.3618C26.4189 16.3618 25.9343 16.5177 25.4492 16.8253C25.1275 17.0297 24.7718 17.3919 24.4055 17.847C24.0662 17.3765 23.5914 17.0639 23.0485 16.9784C22.9449 16.962 22.8402 16.9537 22.7354 16.9537C21.4951 16.9537 20.7489 18.0296 20.4667 18.9975C20.3266 19.3244 19.6547 20.8137 18.644 21.8237C17.1052 23.3573 16.717 24.9378 17.467 26.6306ZM30.5122 23.2278L30.5072 23.2426C30.4945 23.2761 30.4798 23.3088 30.4633 23.3405C30.4508 23.3638 30.4373 23.3865 30.4227 23.4085C30.3948 23.45 30.3643 23.4897 30.3311 23.5271C30.3235 23.5357 30.3161 23.5444 30.3074 23.5529C30.2954 23.5657 30.2833 23.5784 30.2708 23.5907C30.0463 23.8132 29.7042 24.0082 29.3174 24.1871C29.2736 24.207 29.229 24.2268 29.1842 24.2468L29.1395 24.2667C29.1097 24.2798 29.0798 24.2928 29.0485 24.3057C29.0186 24.3187 28.9876 24.3317 28.9566 24.3444L28.8636 24.3827C28.646 24.4723 28.4231 24.5576 28.2056 24.6418L28.1126 24.678L28.0207 24.714C27.9595 24.7379 27.8992 24.7617 27.8398 24.7855L27.7513 24.8212L27.6643 24.8567L27.6216 24.8747C27.5931 24.8866 27.5652 24.8984 27.5374 24.9103C26.8976 25.1849 26.4373 25.4641 26.534 25.8106C26.5367 25.8204 26.5397 25.8298 26.543 25.8389C26.5517 25.8646 26.5635 25.8888 26.5783 25.9116C26.587 25.9251 26.597 25.938 26.6082 25.9497C26.7219 26.0679 26.9288 26.0492 27.1897 25.9553C27.2264 25.9418 27.2629 25.9278 27.2991 25.9131L27.3218 25.9038C27.3815 25.8785 27.4447 25.8501 27.5092 25.8194C27.5254 25.8118 27.5417 25.8044 27.5581 25.7959C27.8772 25.6399 28.2388 25.4298 28.5976 25.2385C28.7412 25.161 28.8867 25.0875 29.0341 25.0176C29.3739 24.8577 29.6934 24.7444 29.9501 24.7444C30.0707 24.7444 30.1771 24.769 30.2658 24.8257L30.2806 24.8356C30.3363 24.8747 30.383 24.9251 30.4178 24.9834C30.4247 24.9946 30.4313 25.0065 30.4378 25.0186C30.5647 25.2596 30.4585 25.509 30.2099 25.7536C29.9713 25.9885 29.6002 26.2188 29.1783 26.4318C29.147 26.4477 29.1157 26.4635 29.0838 26.479C27.8283 27.0956 26.1842 27.5599 26.1614 27.5658C25.7232 27.6793 25.0966 27.8284 24.3907 27.9399L24.2863 27.9563L24.2691 27.9588C24.1901 27.9708 24.1109 27.9819 24.0315 27.9923C23.951 28.0031 23.8696 28.0129 23.7878 28.0221L23.7728 28.0238C23.476 28.058 23.178 28.0806 22.8794 28.0915H22.8751C22.767 28.0953 22.6592 28.0973 22.5511 28.0973H22.4266C22.2618 28.0951 22.0974 28.0876 21.9332 28.075C21.9294 28.075 21.9252 28.075 21.9214 28.074C21.8625 28.0695 21.8038 28.064 21.7451 28.0575C21.6843 28.051 21.6236 28.0436 21.5631 28.0355C21.5232 28.0301 21.4835 28.0241 21.4439 28.0176C21.4035 28.0111 21.3632 28.0044 21.323 27.9974L21.2681 27.9871L21.264 27.9863C21.2061 27.9753 21.1486 27.9631 21.0912 27.9498C21.0579 27.9423 21.0247 27.9349 20.9919 27.9259L20.972 27.9209C20.9557 27.9169 20.9398 27.9126 20.9237 27.9082L20.9148 27.9059L20.8635 27.8909C20.8448 27.8857 20.8261 27.8801 20.8075 27.8746L20.8009 27.8727L20.7524 27.8579C20.7341 27.8522 20.7158 27.8462 20.6976 27.8402L20.6529 27.8254L20.62 27.8139C20.5884 27.8027 20.5569 27.7912 20.5257 27.7792L20.496 27.7675L20.4715 27.7578C20.4241 27.7388 20.3771 27.719 20.3306 27.6982L20.2998 27.6832L20.2946 27.6808C20.2836 27.6757 20.2727 27.6705 20.2617 27.666C20.2402 27.6556 20.2189 27.645 20.1977 27.6341L20.1912 27.631L20.1605 27.6148C20.106 27.5863 20.0527 27.5559 20.0003 27.5238L19.9716 27.5061C19.9573 27.4973 19.943 27.4881 19.9289 27.4787L19.8916 27.4541L19.8514 27.4264L19.8274 27.4092C19.8021 27.3912 19.7772 27.3725 19.7529 27.3534L19.714 27.3235C19.6985 27.311 19.6832 27.2983 19.668 27.2855C19.6552 27.275 19.6427 27.264 19.6302 27.253L19.6292 27.2522C19.6157 27.2403 19.6025 27.2285 19.5893 27.2163C19.5763 27.2045 19.5633 27.1925 19.5506 27.1803L19.5491 27.1788C19.5358 27.1661 19.5228 27.1533 19.51 27.1401C19.4971 27.1271 19.4839 27.1141 19.4714 27.1008C19.4589 27.0876 19.4461 27.0741 19.4338 27.0602C19.4214 27.0466 19.4101 27.0341 19.3984 27.0206L19.3946 27.0161C19.3832 27.0031 19.3721 26.9899 19.3611 26.9764C19.3372 26.9479 19.314 26.9187 19.2917 26.8888C19.2692 26.8588 19.2472 26.8282 19.2257 26.797L19.2052 26.7663C19.1778 26.7263 19.1511 26.6859 19.1253 26.6449C19.106 26.6154 19.0871 26.5857 19.0688 26.5556C19.0569 26.5367 19.0456 26.5177 19.0343 26.499L19.0296 26.4914C19.0188 26.473 19.0081 26.455 18.9978 26.4368C18.9918 26.427 18.9861 26.4172 18.9807 26.407C18.9752 26.3967 18.9689 26.3862 18.9631 26.3757L18.9536 26.3591L18.9477 26.3485C18.9366 26.3285 18.9256 26.3083 18.9149 26.288C18.9099 26.2789 18.9051 26.2699 18.8999 26.2613L18.885 26.2324L18.87 26.2039C18.8325 26.1289 18.797 26.0529 18.7637 25.9758L18.7518 25.9477C18.7442 25.9288 18.737 25.9101 18.7293 25.8916C18.7257 25.8826 18.722 25.8738 18.7188 25.8648C18.701 25.8186 18.6843 25.7719 18.669 25.7249C18.6635 25.7081 18.6581 25.6916 18.6531 25.6749C18.6411 25.637 18.6303 25.5989 18.6206 25.5603C18.6088 25.5155 18.5983 25.4703 18.5894 25.4248C18.5876 25.4156 18.5858 25.4064 18.5843 25.3976C18.5756 25.3531 18.5686 25.3082 18.5631 25.2632C18.5618 25.2544 18.5608 25.2455 18.5598 25.2367L18.5569 25.2097C18.5533 25.1744 18.5504 25.1388 18.5487 25.1033C18.5487 25.0943 18.5479 25.0853 18.5476 25.0767C18.5467 25.059 18.5464 25.0413 18.5462 25.0236C18.5369 24.3112 18.8974 23.6263 19.6682 22.8558C21.0412 21.4841 21.8405 19.4768 21.8405 19.4768C21.8405 19.4768 21.862 19.3926 21.9067 19.2714C21.9129 19.2546 21.9194 19.2372 21.9267 19.2191C21.9527 19.1512 21.9821 19.0845 22.0146 19.0195L22.0211 19.007C22.0488 18.9516 22.0791 18.8976 22.1118 18.8451C22.1195 18.8329 22.1268 18.8209 22.1353 18.8087C22.1598 18.7726 22.1857 18.7372 22.2128 18.703C22.2277 18.6845 22.2438 18.6662 22.26 18.6483C22.2665 18.6413 22.2729 18.6343 22.2797 18.6277C22.3592 18.5455 22.4501 18.4784 22.553 18.4428L22.566 18.4384C22.5746 18.4356 22.5833 18.4329 22.5921 18.4304C22.6023 18.4278 22.6125 18.4254 22.623 18.4233L22.6278 18.4223C22.6495 18.4179 22.6715 18.4151 22.6937 18.4136H22.6955C22.707 18.4136 22.7187 18.4124 22.7305 18.4124C22.7454 18.4124 22.7592 18.4124 22.7737 18.4139C22.7887 18.4152 22.8036 18.4169 22.8186 18.4193C22.9423 18.4389 23.06 18.5126 23.1614 18.6263C23.1999 18.6697 23.2346 18.7164 23.2649 18.7657C23.2849 18.7977 23.3037 18.8316 23.3216 18.8673C23.3288 18.8821 23.3356 18.8958 23.3423 18.9104C23.3596 18.9481 23.3753 18.9865 23.3889 19.0256C23.4215 19.1174 23.446 19.2117 23.4621 19.3078C23.4761 19.392 23.4845 19.477 23.4872 19.5622C23.4885 19.6077 23.4885 19.6539 23.4872 19.7004C23.4781 19.9168 23.4338 20.1304 23.3559 20.3327C23.3489 20.3512 23.3411 20.3698 23.3336 20.3885C23.3183 20.4262 23.3014 20.4632 23.2832 20.4994C23.2697 20.5269 23.2556 20.5546 23.2402 20.5821C23.2302 20.6004 23.2197 20.6188 23.2092 20.6371C23.1824 20.6828 23.1534 20.7281 23.1222 20.7733L23.1033 20.8003C23.0296 20.903 22.9476 20.9994 22.8579 21.0884C22.7695 21.177 22.6748 21.2588 22.5746 21.3335C22.4743 21.4079 22.3801 21.4903 22.293 21.5798C22.0424 21.8427 21.9841 22.0748 22.0404 22.2507C22.0494 22.2784 22.0613 22.3052 22.0756 22.3306C22.0924 22.3596 22.1125 22.3863 22.1351 22.4106L22.144 22.4198L22.153 22.4288C22.162 22.4375 22.1715 22.446 22.1816 22.4543L22.1917 22.4623C22.2158 22.481 22.2415 22.4977 22.2684 22.5123C22.2762 22.5165 22.2832 22.5207 22.292 22.5247C22.321 22.5388 22.3509 22.551 22.3816 22.5608C22.3901 22.5637 22.3986 22.5662 22.4072 22.5689L22.4181 22.5717L22.4331 22.5757L22.4459 22.5789L22.4599 22.5819L22.4738 22.5847L22.4869 22.5869C22.4966 22.5885 22.5066 22.5902 22.5166 22.5914L22.5261 22.5929L22.5435 22.5945L22.5541 22.5957L22.5716 22.5969H22.582L22.6003 22.5979H22.658L22.6745 22.5969L22.6935 22.5957L22.7167 22.5935L22.7384 22.591C22.7434 22.591 22.7484 22.5897 22.7534 22.5887C22.8201 22.579 22.8854 22.5613 22.9479 22.536L22.9745 22.5248C22.9893 22.5183 23.0043 22.5115 23.018 22.5042C23.0473 22.4895 23.0758 22.4728 23.1032 22.4546C23.1414 22.4296 23.1774 22.4016 23.211 22.3708C23.219 22.3636 23.2269 22.3559 23.2346 22.3486C23.2384 22.3449 23.2421 22.3414 23.2457 22.3374C23.2531 22.3299 23.2606 22.3226 23.2679 22.3144C23.3213 22.2557 23.3674 22.191 23.4055 22.1215C23.7317 21.5281 24.0737 20.9436 24.431 20.3685L24.48 20.29L24.5296 20.2114C24.5542 20.1716 24.5792 20.1324 24.6041 20.0934L24.6291 20.0544C24.7121 19.9243 24.7965 19.7951 24.8824 19.6669L24.9332 19.5909C25.0353 19.4396 25.137 19.2926 25.2378 19.1529L25.288 19.0837C25.3977 18.9324 25.5119 18.7844 25.6305 18.64L25.6775 18.5836C25.6853 18.5743 25.6925 18.565 25.701 18.556C25.7165 18.5376 25.732 18.5198 25.7472 18.5024C25.7549 18.4936 25.762 18.4849 25.7702 18.4763L25.8149 18.4259L25.8372 18.4014C25.8597 18.3772 25.8817 18.3541 25.9034 18.3319C25.9184 18.3169 25.9323 18.302 25.9466 18.288C26.0311 18.2017 26.1243 18.1241 26.2249 18.0569L26.2482 18.0419C26.2706 18.0269 26.2937 18.0129 26.3174 18.0003C26.7116 17.7765 27.0379 17.76 27.2258 17.9479C27.3395 18.0616 27.4025 18.2502 27.399 18.5126C27.399 18.5241 27.399 18.5358 27.3982 18.5478V18.5606C27.3982 18.5726 27.3972 18.5846 27.3962 18.5968C27.3962 18.6118 27.3945 18.6267 27.393 18.6417C27.3915 18.6565 27.3907 18.6678 27.3892 18.6812C27.3892 18.6849 27.3885 18.6887 27.3878 18.6927C27.3868 18.7042 27.3853 18.716 27.3837 18.7279C27.3837 18.7314 27.3837 18.735 27.3823 18.7387C27.3805 18.7545 27.3782 18.7702 27.3755 18.7859C27.3737 18.8009 27.3711 18.8149 27.3685 18.8296L27.3641 18.8544C27.3598 18.8781 27.3543 18.9014 27.3475 18.9244C27.3345 18.9676 27.3188 19.0098 27.3003 19.0508C27.2744 19.1072 27.2459 19.162 27.2146 19.2154C27.1973 19.2451 27.1794 19.2742 27.1609 19.3031C27.1419 19.3329 27.1219 19.3631 27.1012 19.3936C27.0485 19.469 26.9938 19.5428 26.937 19.615L26.911 19.6479C26.8183 19.7634 26.7226 19.8766 26.6239 19.9872L26.5927 20.0222C26.5507 20.0691 26.508 20.1162 26.4643 20.1636L26.4315 20.1993C26.4096 20.2231 26.3868 20.247 26.3648 20.271C26.3429 20.2948 26.3201 20.319 26.2971 20.3432L26.2285 20.4154L26.159 20.488L26.089 20.5607C26.042 20.6094 25.9948 20.6581 25.9473 20.7068C25.2712 21.4002 24.5589 22.0913 24.3178 22.5222C24.3016 22.5502 24.2871 22.5792 24.2741 22.6087C24.2398 22.6871 24.2254 22.7541 24.2353 22.8083C24.2384 22.8261 24.2446 22.8431 24.2538 22.8588C24.2673 22.8823 24.2838 22.904 24.303 22.9233C24.3118 22.932 24.3211 22.94 24.331 22.9473C24.3807 22.9827 24.4405 23.0008 24.5015 22.9992H24.5206L24.5401 22.9977L24.5596 22.9955L24.5757 22.9932C24.5779 22.9928 24.5802 22.9925 24.5824 22.9918L24.5972 22.989L24.6011 22.9882L24.6176 22.9847L24.6234 22.9832C24.6293 22.9817 24.6349 22.9802 24.6408 22.9785C24.6466 22.9768 24.6546 22.9747 24.6616 22.9723C24.691 22.9635 24.7196 22.953 24.7478 22.941C24.7626 22.935 24.7771 22.9285 24.7915 22.9215C24.799 22.9181 24.8065 22.9147 24.8135 22.911L24.8358 22.9C24.8892 22.8723 24.9412 22.8421 24.9919 22.8098L25.0141 22.7948C25.0216 22.7901 25.0291 22.7853 25.0363 22.7799L25.0584 22.7651L25.0703 22.7569L25.1023 22.7344C25.1321 22.7139 25.16 22.6927 25.1881 22.6712L25.1906 22.6692L25.2355 22.6345C25.2967 22.5862 25.3547 22.5375 25.4074 22.4917L25.4424 22.461L25.4456 22.458L25.4639 22.4418C25.5069 22.4031 25.5453 22.3671 25.5771 22.3374L25.5903 22.3246C25.6018 22.3138 25.6123 22.3036 25.6218 22.2949L25.6405 22.2764L25.6472 22.2699L25.649 22.2681L25.6685 22.2486L25.6808 22.2357L25.6823 22.2346L25.6882 22.2292L25.6955 22.2225L25.6978 22.2204L25.704 22.2147L25.738 22.1849L25.757 22.1679C25.7672 22.159 25.777 22.15 25.7869 22.1409L25.8095 22.1207C25.8137 22.1173 25.8177 22.1137 25.8219 22.11L25.8457 22.0892L25.8807 22.0583L25.8994 22.0421C25.9719 21.9791 26.0601 21.9029 26.1615 21.8171L26.203 21.7819L26.2716 21.7244L26.3418 21.6658C26.4335 21.5896 26.5322 21.5088 26.6365 21.4249L26.7051 21.3699C26.7634 21.3234 26.8233 21.276 26.884 21.2283C26.9085 21.2092 26.9333 21.19 26.9587 21.171C27.0207 21.1228 27.083 21.0749 27.1459 21.0278C27.289 20.9197 27.4365 20.8115 27.5859 20.7061L27.6499 20.6614C27.6948 20.6306 27.7395 20.5996 27.7841 20.5694L27.8247 20.5421C27.9045 20.4879 27.9856 20.435 28.0673 20.3835L28.1078 20.358L28.1479 20.333C28.1883 20.308 28.2283 20.2835 28.2682 20.2596L28.308 20.2358L28.3877 20.1894L28.4659 20.1446L28.4817 20.1359L28.5436 20.1019C28.5694 20.0879 28.5951 20.0744 28.6208 20.0612L28.659 20.0415L28.6962 20.0229C28.7092 20.0167 28.722 20.0102 28.7347 20.004C28.8184 19.9627 28.9037 19.9247 28.9904 19.89C29.014 19.88 29.0373 19.871 29.0605 19.8631L29.1288 19.8391C29.1493 19.8323 29.1693 19.8258 29.1885 19.82L29.1952 19.818C29.2055 19.8146 29.2159 19.8116 29.226 19.809L29.229 19.8081C29.2504 19.802 29.2715 19.7966 29.2924 19.7916H29.2939C29.3529 19.7774 29.4129 19.7673 29.4735 19.7611C29.5013 19.7583 29.5291 19.7568 29.5572 19.7569H29.5712C29.5898 19.7569 29.6078 19.7581 29.6257 19.7599C29.6339 19.7599 29.642 19.7616 29.65 19.7626H29.6534C29.6614 19.7636 29.6694 19.7648 29.6774 19.7666C29.6852 19.7681 29.6932 19.7694 29.7009 19.7713H29.7034C29.7112 19.7729 29.7182 19.7749 29.7264 19.7773C29.7687 19.7891 29.8091 19.8075 29.8461 19.8315C29.8643 19.8433 29.8813 19.8566 29.897 19.8715L29.9015 19.8758C29.9045 19.8785 29.9073 19.8813 29.91 19.8841L29.9181 19.893C29.9852 19.9632 30.0405 20.0437 30.0822 20.1314L30.0885 20.1464C30.1027 20.1798 30.1139 20.2143 30.1219 20.2495C30.1456 20.3572 30.1364 20.4695 30.0955 20.5721C30.08 20.6134 30.0612 20.6533 30.039 20.6913C29.9872 20.7787 29.9256 20.8599 29.8558 20.9334L29.8409 20.9492C29.8188 20.9726 29.7958 20.9959 29.7716 21.0193C29.7609 21.0298 29.7497 21.0401 29.7386 21.0506L29.7044 21.0821L29.6865 21.0979C29.6435 21.1363 29.5993 21.1735 29.5545 21.2095C29.5273 21.2315 29.5 21.253 29.4723 21.2742C29.3746 21.3489 29.2751 21.4209 29.1737 21.4904C29.1125 21.5325 29.0508 21.5736 28.9886 21.6143C28.8354 21.7149 28.6805 21.8129 28.5241 21.9083C28.196 22.11 27.8323 22.3258 27.4447 22.5603L27.3443 22.6212C27.2344 22.6882 27.1307 22.7523 27.033 22.8133L26.9838 22.8441L26.8908 22.9038C26.8291 22.9433 26.7676 22.9832 26.7061 23.023L26.6565 23.0557C26.6324 23.0714 26.6084 23.0874 26.5843 23.1034L26.5608 23.1184L26.4888 23.1669L26.4506 23.1931L26.4059 23.2241L26.3644 23.2529C26.2949 23.3021 26.2302 23.349 26.1707 23.3935L26.1483 23.4105C26.1133 23.437 26.0787 23.464 26.0445 23.4915C25.993 23.5331 25.9459 23.5727 25.9038 23.6109L25.8831 23.6298C25.8712 23.6406 25.8596 23.6514 25.8484 23.6621C25.8407 23.6696 25.8336 23.6771 25.8256 23.6843L25.8149 23.695C25.791 23.719 25.7677 23.7435 25.7452 23.7686L25.7342 23.7813C25.7097 23.8097 25.6883 23.8368 25.6697 23.8633L25.6613 23.8752C25.6467 23.8965 25.6331 23.9185 25.621 23.9412C25.6178 23.9469 25.615 23.9525 25.6121 23.9582L25.604 23.9752L25.5985 23.9876L25.595 23.9959L25.5921 24.0034L25.5883 24.0136C25.578 24.0418 25.5708 24.0711 25.5666 24.1008L25.5653 24.1111L25.5643 24.1208V24.1733C25.5643 24.1776 25.5643 24.182 25.5655 24.1866L25.5663 24.1946C25.5663 24.199 25.5673 24.2031 25.568 24.2078C25.5686 24.2122 25.5698 24.22 25.5711 24.2262V24.227C25.5723 24.2328 25.5735 24.2385 25.575 24.2443C25.5765 24.2502 25.578 24.2568 25.5798 24.2628C25.583 24.2747 25.587 24.2863 25.5911 24.298C25.5938 24.305 25.5963 24.3119 25.5991 24.3187C25.5991 24.32 25.6001 24.3215 25.6008 24.3229L25.6068 24.3364L25.6151 24.3549C25.6241 24.374 25.634 24.3927 25.6447 24.4109L25.6557 24.4299L25.667 24.4489C25.669 24.4521 25.6713 24.4551 25.6738 24.4579L25.6775 24.4617L25.6817 24.4656L25.686 24.4689C25.6923 24.4734 25.6992 24.4769 25.7063 24.4794C25.7102 24.4808 25.7142 24.4818 25.7182 24.4828C25.8144 24.5044 26.0121 24.4249 26.2749 24.2862C26.2897 24.2782 26.3061 24.2698 26.3219 24.2612L26.4019 24.2175L26.441 24.1958C26.4688 24.181 26.4971 24.1641 26.5262 24.1476L26.579 24.1178C26.9263 23.9179 27.3411 23.6611 27.77 23.4103C27.8102 23.3868 27.8505 23.3633 27.8909 23.3401L27.9719 23.2883C28.0659 23.2344 28.1605 23.1813 28.2553 23.1287C28.3749 23.063 28.4953 22.999 28.6168 22.937L28.6962 22.8968C28.7488 22.8708 28.801 22.8455 28.8526 22.8208C28.9523 22.7734 29.0531 22.7284 29.1552 22.6859L29.211 22.6632L29.2177 22.6606C29.5136 22.5433 29.7819 22.471 29.999 22.471C30.0458 22.4705 30.0929 22.4745 30.139 22.4825H30.1406C30.1554 22.4852 30.1689 22.4882 30.1827 22.4915H30.1852C30.2207 22.5005 30.2553 22.5133 30.2879 22.5298C30.3338 22.5535 30.375 22.585 30.4098 22.623C30.4258 22.6407 30.44 22.6599 30.4525 22.6802C30.4758 22.7161 30.4942 22.7549 30.5074 22.7956C30.5127 22.8114 30.5174 22.8269 30.5222 22.8435C30.5574 22.9697 30.5539 23.1036 30.5122 23.2278Z" fill="#FF9D00"/>
<path fill-rule="evenodd" clip-rule="evenodd" d="M28.5483 14.1721V14.0903C28.5483 7.11191 22.8932 1.4549 15.9143 1.4549C8.93563 1.4549 3.27827 7.11224 3.27827 14.0903V14.1176C3.27794 14.1358 3.27777 14.154 3.27827 14.1721C3.27909 14.1993 3.27937 14.2265 3.2791 14.2537L3.27995 14.3137L3.28044 14.3352C3.28044 14.3452 3.28079 14.355 3.28112 14.365C3.28162 14.3809 3.28194 14.3969 3.28194 14.4127L3.28377 14.4776L3.28644 14.5538L3.28727 14.5788L3.29061 14.6577V14.6615C3.29194 14.6923 3.29363 14.723 3.29513 14.7537L3.29528 14.756C3.29694 14.7874 3.29863 14.8189 3.30063 14.8504C3.3023 14.8794 3.30395 14.9084 3.30611 14.9374L3.30646 14.9426C3.30791 14.9674 3.30958 14.9924 3.31145 15.0173L3.31195 15.024L3.31745 15.096L3.31797 15.1007C3.31897 15.1147 3.31995 15.1287 3.32129 15.1422C3.33126 15.2624 3.34288 15.3826 3.35615 15.5025L3.35697 15.51L3.36714 15.5982L3.37849 15.6907L3.38681 15.7536L3.39065 15.7831C3.39953 15.8511 3.40915 15.919 3.41949 15.9867L3.42017 15.9912L3.43 16.0552C3.4776 16.3601 3.53655 16.6633 3.60673 16.9639L3.60758 16.9675L3.6129 16.9901L3.62807 17.0542L3.63741 17.0431C4.00422 16.6046 4.53042 16.3628 5.11915 16.3628C5.59099 16.3628 6.07503 16.5189 6.56022 16.8265C6.88201 17.0309 7.23781 17.3929 7.60395 17.8482C7.94275 17.3777 8.4176 17.0649 8.96081 16.9795C9.06438 16.9632 9.16907 16.955 9.27393 16.9549C10.5137 16.9549 11.2605 18.0308 11.5426 18.9987C11.682 19.3256 12.3538 20.8149 13.3668 21.8222C14.9068 23.3607 15.2921 24.9481 14.5299 26.6479H14.5326C14.5845 26.6538 14.6366 26.6591 14.6892 26.6639C14.7203 26.6669 14.7514 26.6699 14.7827 26.6726L14.7937 26.6736L14.8626 26.6795L14.9259 26.6845C14.9863 26.6891 15.0468 26.6935 15.1075 26.6973L15.1557 26.7001L15.1939 26.7025L15.2175 26.7038L15.2921 26.7076L15.3124 26.7085L15.3906 26.712L15.4776 26.7153L15.5475 26.7173L15.5592 26.7176C15.574 26.7183 15.5888 26.7188 15.6037 26.7188L15.6197 26.7193C15.7181 26.7216 15.8163 26.7228 15.9146 26.7226H16.019L16.0935 26.7218C16.1119 26.721 16.1301 26.721 16.1486 26.721H16.1776L16.2028 26.7203C16.2126 26.72 16.2224 26.7196 16.2324 26.7196H16.2623L16.3208 26.7181L16.4088 26.7151L16.5057 26.7108C16.5337 26.7098 16.5614 26.7083 16.5891 26.707L16.6189 26.7051L16.6633 26.7028L16.6893 26.7013L16.7089 26.7L16.7985 26.6941L16.8879 26.6876L16.969 26.6811L17.0261 26.6763L17.0888 26.6706C17.1935 26.6613 17.2978 26.6503 17.4022 26.6378L17.4734 26.6293C16.7233 24.9366 17.1116 23.356 18.645 21.8237C19.6559 20.8137 20.3277 19.3245 20.4677 18.9973C20.75 18.0296 21.4963 16.9537 22.7364 16.9537C22.8413 16.9537 22.9462 16.962 23.0497 16.9784C23.5924 17.0637 24.0673 17.3765 24.4066 17.847C24.7729 17.3919 25.1285 17.0296 25.4505 16.8252C25.9355 16.5177 26.42 16.3616 26.8914 16.3616C27.4109 16.3616 27.8818 16.55 28.2374 16.8957C28.2439 16.8675 28.2502 16.8393 28.2564 16.811L28.2746 16.7266C28.2811 16.6958 28.2876 16.6649 28.2937 16.6341C28.3048 16.5796 28.3158 16.525 28.3263 16.47C28.3373 16.413 28.3478 16.3556 28.3578 16.2983L28.3629 16.2673C28.3661 16.2489 28.3691 16.2306 28.3726 16.2121C28.3783 16.1834 28.3829 16.1547 28.3876 16.1257L28.3895 16.1147L28.4013 16.0392L28.413 15.9627V15.962C28.4215 15.9055 28.4295 15.8489 28.437 15.7924L28.4388 15.7784L28.4493 15.6987L28.4578 15.6307L28.4728 15.4966L28.4787 15.4428L28.4802 15.4281C28.4833 15.3991 28.4863 15.3701 28.489 15.3411V15.3387C28.4912 15.3157 28.4935 15.2926 28.4955 15.2694C28.5073 15.138 28.5173 15.006 28.5253 14.8734C28.5268 14.8517 28.528 14.8299 28.5293 14.808V14.807L28.5337 14.7252L28.5347 14.7068C28.5373 14.6515 28.5397 14.5961 28.5415 14.5408V14.5388L28.5423 14.5171C28.5432 14.4989 28.5438 14.4806 28.5438 14.4622L28.5442 14.4549C28.5448 14.4377 28.5455 14.4201 28.5455 14.4026L28.546 14.3875C28.5465 14.37 28.547 14.3527 28.547 14.3352L28.5473 14.3204C28.5478 14.2982 28.5483 14.2758 28.5483 14.2537V14.1721ZM12.7803 26.7947C13.781 25.3273 13.71 24.2258 12.3371 22.8536C10.9639 21.4813 10.1648 19.4745 10.1648 19.4745C10.1648 19.4745 9.86649 18.3089 9.18623 18.4159C8.50597 18.523 8.00694 20.2648 9.43133 21.3311C10.8555 22.3973 9.14788 23.1202 8.59967 22.1197C8.05146 21.119 6.5547 18.5468 5.77873 18.0548C5.00277 17.5628 4.45706 17.8385 4.63996 18.8526C4.73083 19.356 5.57584 20.2151 6.36531 21.0178C7.16629 21.8321 7.91006 22.5884 7.75099 22.856C7.43537 23.3874 6.32379 22.2316 6.32379 22.2316C6.32379 22.2316 2.8431 19.064 2.08548 19.8895C1.38687 20.6503 2.46412 21.297 4.12411 22.2939C4.26517 22.3786 4.41056 22.466 4.55945 22.556C6.45868 23.7058 6.60639 24.0091 6.33678 24.4441C6.23724 24.6048 5.6015 24.2232 4.81953 23.7538C3.48652 22.9533 1.72886 21.8981 1.48059 22.8426C1.26584 23.6601 2.55899 24.161 3.73178 24.6153C4.70882 24.9938 5.60252 25.3399 5.47097 25.8098C5.33475 26.297 4.5963 25.8906 3.78915 25.4465C2.88297 24.9478 1.89009 24.4016 1.56513 25.018C0.951056 26.1834 5.80176 27.5555 5.84178 27.5656C7.40905 27.9721 11.3892 28.8335 12.7803 26.7947ZM19.2269 26.7947C18.2262 25.3273 18.2972 24.2258 19.6703 22.8536C21.0433 21.4813 21.8424 19.4745 21.8424 19.4745C21.8424 19.4745 22.1407 18.3089 22.821 18.4159C23.5012 18.523 24.0003 20.2648 22.576 21.3311C21.1517 22.3973 22.8593 23.1202 23.4075 22.1197C23.9559 21.119 25.4517 18.5468 26.2276 18.0548C27.0036 17.5628 27.5496 17.8385 27.3666 18.8526C27.2759 19.356 26.4307 20.2151 25.6412 21.0179C24.8402 21.8323 24.0965 22.5884 24.2554 22.856C24.571 23.3874 25.6834 22.2309 25.6834 22.2309C25.6834 22.2309 29.1639 19.0635 29.9219 19.889C30.6203 20.6496 29.5431 21.2965 27.8829 22.2934C27.7377 22.3806 27.5926 22.468 27.4478 22.5555C25.5485 23.7053 25.4008 24.0086 25.6702 24.4434C25.7699 24.6043 26.4057 24.2225 27.1875 23.7532C28.5207 22.9529 30.2783 21.8974 30.5266 22.8421C30.7415 23.6596 29.4482 24.1605 28.2754 24.6148C27.2984 24.9933 26.4047 25.3394 26.5361 25.8093C26.6721 26.2963 27.4104 25.89 28.2174 25.4458C29.1236 24.9471 30.1166 24.4006 30.4414 25.0175C31.0556 26.1836 26.2041 27.5543 26.1649 27.5643C24.5977 27.9721 20.6175 28.8335 19.2269 26.7947Z" fill="#FFD21E"/>
<path fill-rule="evenodd" clip-rule="evenodd" d="M20.0158 10.6511C20.2129 10.7208 20.3595 10.9329 20.4989 11.1348C20.6873 11.4075 20.8627 11.6615 21.1318 11.5184C21.4492 11.3495 21.7095 11.0904 21.8796 10.7736C22.0498 10.4568 22.1223 10.0968 22.088 9.73891C22.0623 9.47127 21.9776 9.21267 21.8399 8.98175C21.7022 8.75081 21.5149 8.55328 21.2918 8.40342C21.0686 8.25357 20.8148 8.1551 20.549 8.1151C20.2831 8.0751 20.0117 8.09459 19.7542 8.17213C19.4968 8.24965 19.2599 8.38327 19.0603 8.56337C18.8607 8.74347 18.7035 8.96557 18.6001 9.2137C18.4968 9.46183 18.4496 9.72982 18.4621 9.99834C18.4747 10.2669 18.5466 10.5292 18.6728 10.7666C18.7975 11.0012 19.0743 10.8905 19.3664 10.7736C19.5953 10.6821 19.8339 10.5867 20.0158 10.6511ZM11.45 10.6511C11.253 10.7208 11.1064 10.933 10.967 11.1348C10.7786 11.4077 10.603 11.6615 10.3341 11.5184C9.93487 11.307 9.62871 10.9544 9.47525 10.5295C9.3218 10.1046 9.33209 9.6378 9.50409 9.22006C9.67609 8.80231 9.9975 8.4636 10.4056 8.26992C10.8138 8.07625 11.2794 8.04152 11.7118 8.17247C12.0561 8.27614 12.3619 8.47954 12.5906 8.75694C12.8194 9.03437 12.9606 9.37335 12.9968 9.73107C13.0328 10.0888 12.962 10.4492 12.7932 10.7666C12.6683 11.0012 12.3916 10.8905 12.0995 10.7738C11.8704 10.6821 11.6321 10.5867 11.45 10.6511ZM18.6907 18.4459C20.0484 17.3763 20.547 15.63 20.547 14.5543C20.547 13.7039 19.975 13.9715 19.0591 14.425L19.0075 14.4506C18.1668 14.8669 17.0477 15.4213 15.8192 15.4213C14.5906 15.4213 13.4715 14.8669 12.631 14.4504C11.6855 13.982 11.0924 13.6883 11.0924 14.5544C11.0924 15.6642 11.6229 17.4864 13.0792 18.545C13.2714 18.155 13.542 17.8088 13.8741 17.5281C14.2061 17.2473 14.5926 17.0381 15.0091 16.9133C15.1545 16.87 15.3042 17.1203 15.4574 17.3765C15.6053 17.6236 15.7565 17.8764 15.9103 17.8764C16.0742 17.8764 16.2351 17.6273 16.3923 17.3842C16.5565 17.1299 16.7167 16.8823 16.8716 16.9318C17.6511 17.1821 18.3032 17.7248 18.6907 18.4459Z" fill="#32343D"/>
<path d="M18.6854 18.4457C17.9783 19.0029 17.0384 19.3766 15.8144 19.3766C14.6645 19.3766 13.7652 19.0468 13.0742 18.5448C13.2665 18.1548 13.5371 17.8085 13.8692 17.5279C14.2012 17.2471 14.5876 17.0378 15.0041 16.9131C15.2896 16.8279 15.5922 17.8762 15.9053 17.8762C16.2404 17.8762 16.5634 16.8348 16.8667 16.9316C17.646 17.1821 18.2979 17.7248 18.6854 18.4457Z" fill="#FF323D"/>
<path fill-rule="evenodd" clip-rule="evenodd" d="M8.20168 12.1639C8.04015 12.2719 7.85443 12.3384 7.66101 12.3574C7.46758 12.3766 7.27244 12.3476 7.09292 12.2731C6.94942 12.2139 6.81902 12.1268 6.70924 12.017C6.59945 11.9073 6.51243 11.7769 6.45318 11.6333C6.37881 11.4538 6.34989 11.2587 6.36901 11.0653C6.38812 10.8719 6.45466 10.6861 6.56272 10.5246C6.69257 10.3302 6.87714 10.1786 7.09312 10.0892C7.30911 9.99971 7.54676 9.9763 7.77604 10.0219C8.00533 10.0676 8.21591 10.1802 8.38115 10.3455C8.5464 10.5109 8.65889 10.7216 8.70438 10.9509C8.74994 11.1801 8.7265 11.4177 8.63707 11.6337C8.54762 11.8496 8.39599 12.034 8.20168 12.1639ZM25.1104 12.1639C24.9488 12.2719 24.7631 12.3384 24.5697 12.3574C24.3761 12.3766 24.181 12.3476 24.0014 12.2731C23.8579 12.2137 23.7275 12.1268 23.6178 12.017C23.5081 11.9073 23.421 11.7769 23.3617 11.6333C23.2875 11.4538 23.2587 11.2587 23.2777 11.0653C23.2968 10.8719 23.3634 10.6861 23.4712 10.5246C23.5683 10.3792 23.6965 10.2573 23.8464 10.1674C23.9963 10.0775 24.1642 10.0221 24.3381 10.005C24.5121 9.98787 24.6877 10.0096 24.8521 10.0685C25.0167 10.1275 25.1661 10.2222 25.2896 10.3458C25.455 10.5111 25.5675 10.7216 25.6131 10.9509C25.6587 11.1801 25.6352 11.4177 25.5457 11.6337C25.4562 11.8496 25.3048 12.034 25.1104 12.1639Z" fill="#FFAD03"/>
</svg>
